<svg version="1.2" xmlns="http://www.w3.org/2000/svg" viewBox="0 0 1920 1075" width="1920" height="1075"><defs><clipPath clipPathUnits="userSpaceOnUse" id="cp1"><path d="m0-5h1920v1080h-1920z"/></clipPath><linearGradient id="P" gradientUnits="userSpaceOnUse"/><linearGradient id="g1" x1="958" y1="732" x2="962.3" y2="-138.5" href="#P"><stop stop-color="#c6def1"/><stop offset="1" stop-color="#c6def1"/></linearGradient><clipPath clipPathUnits="userSpaceOnUse" id="cp2"><path d="m187 74h1547v274h-1547z"/></clipPath><linearGradient id="g2" x1="954.5" y1="316.8" x2="962.2" y2="817.2" href="#P"><stop stop-color="#e6fafa" stop-opacity="1"/><stop offset="1" stop-color="#e6fafa" stop-opacity="0"/></linearGradient><clipPath clipPathUnits="userSpaceOnUse" id="cp3"><path d="m582 254h700v301h-700z"/></clipPath><linearGradient id="g3" x1="760.8" y1="310.7" x2="765.1" y2="541.1" href="#P"><stop stop-color="#fff"/><stop offset="1" stop-color="#c4c4c4"/></linearGradient><linearGradient id="g4" x1="1060.8" y1="302.7" x2="1057.2" y2="529.4" href="#P"><stop stop-color="#fff"/><stop offset="1" stop-color="#c4c4c4"/></linearGradient><linearGradient id="g5" x1="909.1" y1="307.2" x2="910.5" y2="537.6" href="#P"><stop stop-color="#fff"/><stop offset="1" stop-color="#c4c4c4"/></linearGradient><linearGradient id="g6" x1="660.3" y1="517.6" x2="704.3" y2="535.5" href="#P"><stop stop-color="#b08d5d" stop-opacity="1"/><stop offset="1" stop-color="#b08d5d" stop-opacity="0"/></linearGradient><linearGradient id="g7" x1="1210.7" y1="495.5" x2="1175.7" y2="545.9" href="#P"><stop stop-color="#b08d5d" stop-opacity="1"/><stop offset="1" stop-color="#b08d5d" stop-opacity="0"/></linearGradient><linearGradient id="g8" x1="1207.3" y1="346.5" x2="1202" y2="394.4" href="#P"><stop stop-color="#8c3d3d" stop-opacity="1"/><stop offset="1" stop-color="#8c3d3d" stop-opacity="0"/></linearGradient><linearGradient id="g9" x1="642" y1="462.8" x2="679.2" y2="468.2" href="#P"><stop stop-color="#e0b828" stop-opacity="1"/><stop offset="1" stop-color="#e0b828" stop-opacity="0"/></linearGradient><linearGradient id="g10" x1="702.9" y1="451.9" x2="701.8" y2="511.7" href="#P"><stop stop-color="#1d88bf"/><stop offset="1" stop-color="#166b96"/></linearGradient><linearGradient id="g11" x1="625.8" y1="421.9" x2="726.1" y2="421.9" href="#P"><stop stop-color="#ffd056"/><stop offset="1" stop-color="#e08f43"/></linearGradient><linearGradient id="g12" x1="681.9" y1="427.8" x2="725.6" y2="405.3" href="#P"><stop stop-color="#ffd056"/><stop offset="1" stop-color="#e08f43"/></linearGradient><linearGradient id="g13" x1="670.3" y1="431.9" x2="714.1" y2="404.8" href="#P"><stop stop-color="#ffd056"/><stop offset="1" stop-color="#e08f43"/></linearGradient><linearGradient id="g14" x1="903.6" y1="505.3" x2="933.5" y2="545.7" href="#P"><stop stop-color="#ffab27" stop-opacity="1"/><stop offset="1" stop-color="#ffab27" stop-opacity="0"/></linearGradient><linearGradient id="g15" x1="842.5" y1="473.1" x2="853.7" y2="533.1" href="#P"><stop stop-color="#ffab27" stop-opacity="1"/><stop offset="1" stop-color="#ffab27" stop-opacity="0"/></linearGradient><linearGradient id="g16" x1="1181.8" y1="523.3" x2="1155.9" y2="475.9" href="#P"><stop stop-color="#1d88bf"/><stop offset="1" stop-color="#166b96"/></linearGradient><linearGradient id="g17" x1="1154.3" y1="450.9" x2="1110.3" y2="527.3" href="#P"><stop stop-color="#1d88bf"/><stop offset="1" stop-color="#166b96"/></linearGradient><linearGradient id="g18" x1="1078.9" y1="462.6" x2="1105.2" y2="433.6" href="#P"><stop stop-color="#ffd056"/><stop offset="1" stop-color="#e08f43"/></linearGradient><linearGradient id="g19" x1="1123.2" y1="413.7" x2="1155.1" y2="470.3" href="#P"><stop stop-color="#ffd056"/><stop offset="1" stop-color="#e08f43"/></linearGradient><linearGradient id="g20" x1="1122.2" y1="444.7" x2="1139.1" y2="426" href="#P"><stop stop-color="#ffd056"/><stop offset="1" stop-color="#e08f43"/></linearGradient><linearGradient id="g21" x1="1102.9" y1="470" x2="1139.3" y2="409.8" href="#P"><stop stop-color="#ffd056"/><stop offset="1" stop-color="#e08f43"/></linearGradient><linearGradient id="g22" x1="1077.2" y1="506" x2="1020" y2="528.6" href="#P"><stop stop-color="#2b401d"/><stop offset="1" stop-color="#486b31"/></linearGradient><linearGradient id="g23" x1="1030" y1="492.9" x2="1080.4" y2="492.9" href="#P"><stop stop-color="#b08d5d" stop-opacity="1"/><stop offset="1" stop-color="#b08d5d" stop-opacity="0"/></linearGradient></defs><style>.a{fill:url(#g1)}.b{fill:#e2f2ff}.c{opacity:.7;fill:url(#g2)}.d{fill:#fff}.e{fill:#f2ede3}.f{fill:#e4dac5}.g{fill:#a88944}.h{fill:url(#g3)}.i{fill:url(#g4)}.j{fill:url(#g5)}.k{fill:#fed231}.l{fill:#e0b828}.m{fill:#362700}.n{fill:#1f1600}.o{fill:#cea873}.p{fill:url(#g6)}.q{fill:url(#g7)}.r{fill:#c9c9c9}.s{fill:#adadad}.t{fill:#f7f7f7}.u{fill:#ad4c4c}.v{fill:url(#g8)}.w{fill:#a6a6a6}.x{fill:#808080}.y{fill:url(#g9)}.z{fill:#ff9e6e}.A{fill:#fff76e}.B{fill:#ffdab5}.C{fill:#858585}.D{fill:url(#g10)}.E{fill:url(#g11)}.F{opacity:.8;mix-blend-mode:multiply;fill:url(#g12)}.G{fill:url(#g13)}.H{fill:#7d5751}.I{fill:#e0c09f}.J{fill:#6e5e4e}.K{fill:#ebc255}.L{fill:#cfac4b}.M{fill:#ffab27}.N{mix-blend-mode:multiply;fill:url(#g14)}.O{fill:#db8221}.P{mix-blend-mode:multiply;fill:url(#g15)}.Q{fill:url(#g16)}.R{fill:url(#g17)}.S{fill:#486b31}.T{fill:url(#g18)}.U{fill:url(#g19)}.V{opacity:.8;mix-blend-mode:multiply;fill:url(#g20)}.W{fill:url(#g21)}.X{fill:#333}.Y{fill:url(#g22)}.Z{fill:#82a66c}.a0{fill:#375225}.a1{fill:url(#g23)}</style><g clip-path="url(#cp1)"><path class="a" d="m0-134v923.2c97.3-24 264.9-71.9 372.9-139.4 159.9-99.8 402.6-213.3 715.1-162.7 302.5 55.4 649.8 276.5 832 302.1v-923.2z"/><g clip-path="url(#cp2)"><path class="b" d="m1266 194.2h140.3c0 0-3.6-15.6-24.6-6.5 0 0-10.8-25.4-35.9-24.4-25.2 0.9-31.2 22.7-31.2 22.7 0 0-10.8-7.2-17.4-4-6.7 3.1-7.7 7.4-7.7 7.4 0 0-12.7-2.2-23.5 4.8z"/><path class="b" d="m290.9 328.2h-103.9c0 0 2.7-11.6 18.3-4.8 0 0 7.9-18.8 26.5-18.1 18.7 0.7 23.1 16.8 23.1 16.8 0 0 8-5.3 12.9-3 5 2.3 5.7 5.5 5.7 5.5 0 0 9.4-1.6 17.4 3.6z"/><path class="b" d="m745.5 102.6h149.4c0 0-10.1-15-26.1-7.5 0 0-8.5-25.1-45.1-20.6-36.6 4.5-37.1 20.6-37.1 20.6 0 0-20.6-10.5-41.1 7.5z"/><path class="b" d="m426.4 157.8h193.9c0 0-6.5-12.5-17.1-12.5-10.5 0-15.9 6.3-15.9 6.3 0 0-1.1-12.3-15.1-6.3 0 0-7.5-28.1-33.1-26.1-25.5 2-25 28.1-25 28.1 0 0-19.1-7.5-27.1-5.5-8 1.9-9 8.5-9 8.5 0 0-23.1-9.1-51.6 7.5z"/><path class="b" d="m1734 348h-139.9c0 0 4.7-9 12.3-9 7.6 0 11.5 4.5 11.5 4.5 0 0 0.8-8.9 10.9-4.5 0 0 5.4-20.3 23.9-18.9 18.4 1.5 18.1 20.3 18.1 20.3 0 0 13.7-5.4 19.5-4 5.8 1.5 6.5 6.2 6.5 6.2 0 0 16.6-6.5 37.2 5.4z"/></g><path class="c" d="m1148.5 388c-202.8-46.3-386.2-42.6-641 72.1-254.8 114.7-507.5 100.4-507.5 100.4v228.8c97.3-24.1 264.9-72 372.9-139.4 175.1-95.9 392.6-230.3 715.1-162.8 304.5 55.9 649.8 276.5 832 302.2v-226.8c-255.8 4.9-568.6-128.3-771.5-174.5z"/><g clip-path="url(#cp3)"><path class="d" d="m734.8 271.9h-2v267.1h2z"/><path class="d" d="m732.8 287.7v2h55.9v-2z"/><path class="d" d="m942.3 277v2h105.6v-2z"/><path class="d" d="m942.3 381.4v2h105.6v-2z"/><path class="d" d="m839.8 333.8v1.9h42.3v-1.9z"/><path class="d" d="m841.7 297.5h-2v241.5h2z"/><path class="d" d="m788.7 271.9h-2v267.1h2z"/><path class="d" d="m943.3 254h-2v241.6h2z"/><path class="d" d="m1048.6 254h-2v241.6h2z"/><path class="e" d="m1152.5 387.7h-505.3v149.2h505.3z"/><path class="f" d="m809.5 536.9h2v-149.2h-2zm20.8 0h2v-149.1h-2zm-10.4 0h2v-149.2h-2zm72.6 0h2v-149.1h-2zm-103.7 0h2v-149.2h-2zm93.3 0h2v-149.1h-2zm-41.5 0h2v-149.2h-2zm31.1 0h2v-149.1h-2zm-207.3 0h2v-149.2h-2zm186.6 0h2v-149.1h-2zm10.4 0h2v-149.2h-2zm-83 0h2v-149.1h-2zm-82.9 0h2v-149.2h-2zm-10.4 0h2v-149.1h-2zm20.8 0h2v-149.2h-2zm-31.1 0h2v-149.1h-2zm-20.8 0h2v-149.2h-2zm114.1 0h1.9v-149.1h-1.9zm-10.4 0h2v-149.2h-2zm-41.5 0h2v-149.1h-2zm31.1 0h2v-149.2h-2zm-20.7 0h2v-149.1h-2zm10.3 0h2v-149.2h-2zm62.3 0h2v-149.1h-2zm269.5 0h2v-149.2h-2zm-41.4 0h1.9v-149.1h-1.9zm31 0h2v-149.2h-2zm20.8 0h2v-149.1h-2zm-41.5 0h2v-149.2h-2zm10.4 0h2v-149.1h-2zm41.5 0h2v-149.2h-2zm51.8-149.1v149.1h2v-149.1zm-10.4 149.1h2v-149.1h-2zm-31.1 0h2v-149.2h-2zm20.8 0h2v-149.1h-2zm-10.4 0h2v-149.2h-2zm-134.8 0h2v-149.1h-2zm-41.4 0h2v-149.2h-2zm10.3 0h2v-149.1h-2zm-20.7 0h2v-149.2h-2zm93.3 0h2v-149.1h-2zm-103.7 0h2v-149.2h-2zm41.5 0h2v-149.1h-2zm51.8 0h2v-149.2h-2zm-41.4 0h2v-149.1h-2zm31.1 0h2v-149.2h-2zm-93.3 0h2v-149.1h-2zm82.9 0h2v-149.2h-2z"/><path fill-rule="evenodd" class="g" d="m838.7 458.5v42.6h-23.7v38.6h-46v-38.6h-73v-44.1l81.2-145.9h34.4l3.4 3.4v141.2h20.3zm-100.6-2.8h30.9v-56.1z"/><path fill-rule="evenodd" class="h" d="m835.3 455.7v45.4h-23.7v38.6h-46v-38.6h-73v-44.1l81.2-145.9h37.8v144.6zm-100.5 0h30.8v-56.1z"/><path fill-rule="evenodd" class="g" d="m1132.7 458.5v42.6h-23.6v38.6h-46.1v-38.6h-73v-44.1l81.3-145.9h34.4l3.4 3.4v141.2h20.2zm-100.5-2.8h30.8v-56.1z"/><path fill-rule="evenodd" class="i" d="m1129.3 455.7v45.4h-23.6v38.6h-46.1v-38.6h-73v-44.1l81.2-145.9h37.8v144.6zm-100.5 0h30.9v-56.1z"/><path fill-rule="evenodd" class="g" d="m863 512.5q-17.8-30.2-17.8-87.3c0-38 6-66.1 17.9-86.2q17.9-30.2 51.3-30.2 33.4 0 51.3 30.2 17.8 30.1 17.8 86.2c0 37.4-5.9 67.2-17.7 87.3q-17.7 30.1-51.4 30.1-33.7 0-51.4-30.1zm69.1-31.8q5.4-16.9 5.4-55.5c0-25.7-1.8-43.5-5.4-54.6q-5.4-16.7-17.7-16.7-12.3 0-17.7 16.7-5.4 16.7-5.4 54.6c0 25.3 1.8 44.2 5.4 55.5q5.4 16.8 17.7 16.9 12.3 0 17.7-16.9z"/><path fill-rule="evenodd" class="j" d="m858.4 512.5q-17.7-30.2-17.7-87.3c0-38 5.9-66.1 17.9-86.2q17.8-30.2 51.2-30.2 33.5 0 51.3 30.2 17.9 30.1 17.9 86.2c0 37.4-5.9 67.2-17.7 87.3q-17.8 30.1-51.5 30.1-33.6 0-51.4-30.1zm69.2-31.8q5.4-16.9 5.4-55.5c0-25.7-1.8-43.5-5.4-54.6q-5.4-16.7-17.7-16.7-12.4 0-17.8 16.7-5.4 16.7-5.4 54.6c0 25.3 1.8 44.2 5.4 55.5q5.4 16.8 17.8 16.9 12.3 0 17.7-16.9z"/><path class="k" d="m740.2 371.5l71.4-20h3.4v14.2l-3.4 0.1-78.8 19z"/><path class="l" d="m811.6 365.8l3.4-0.1v-14.2h-3.4z"/><path class="m" d="m753 379.9l4.3-1 2.4-12.9-4.4 1.2zm9-2.1l4.4-1.1 2.5-13.2-4.4 1.2-2.5 13.1zm-26 1.4l-1 5.1 4.4-1.1 2.2-12.2-1.4 0.4-4.3 7.7zm8.1 3l4.4-1.1 2.3-12.5-4.4 1.2-2.3 12.4zm54.1-13.1l4.3-1 2.7-14.7-4.4 1.2zm13.6-17.5l-1.8 0.5-2.7 14.8 4.3-1 2.7-14.3h-2.5zm-40.6 24l4.4-1 2.5-13.6-4.4 1.2-2.5 13.4zm18-4.3l4.4-1.1 2.7-14.3-4.4 1.2zm-9 2.2l4.3-1.1 2.6-13.9-4.4 1.2-2.5 13.8z"/><path class="n" d="m814.1 351.5h-2.5v13.1z"/><path class="k" d="m753.1 348.3l58.5 23.2 3.4 1.6v-12.4l-3.4-2.2-52.8-20.5z"/><path class="l" d="m811.6 371.5l3.4 1.6v-12.4l-3.4-2.2z"/><path class="m" d="m761.1 338.9l-3.8 1.9-3.5 6.3 12.4-6.2zm20 7.7l-14.2 7.1 5.1 2 14.3-7.1-5.2-2zm-10-3.8l-14.1 7 5.1 2 14.2-7-5.2-2zm20 7.7l-14.3 7.2 5.1 2 14.3-7.2-5.1-2zm10 3.9l-14.4 7.2 5.1 2 14.4-7.2-5.1-2zm10.5 17l3.5-1.7v-4.6l-8.6 4.3 5.1 2zm0.1-12.9l-0.6-0.3-14.5 7.3 5.1 2 13.4-6.7v-0.1l-3.4-2.2z"/><path class="n" d="m811.6 371.3l3.4-1.7v-4.6l-3.4 1.7zm0-12.9v4.1l3.4-1.8v-0.1l-3.4-2.2z"/><path class="k" d="m979 431.6l-46-9.7v15.5l45.4 8.7q0.4-7 0.6-14.5z"/><path class="l" d="m983.6 431.6h-4.6q-0.2 7.5-0.6 14.5l5.2-2c0.9-6.1 0-12.5 0-12.5z"/><path class="n" d="m984 436.6l-5.4 4.5c-0.1 1.7-0.1 3.4-0.2 5l1.3-0.6 4.1-3.4c0.2-2 0.2-3.9 0.2-5.5zm-0.4-5h-4.6q-0.1 2.1-0.2 4.2l4.8-4q-0.1-0.2-0.1-0.2z"/><path class="m" d="m938.2 423l-5.3 4.4v5.4l10.4-8.7zm9.9 2l-14.6 12.4 5.1 1 14.6-12.3-5.1-1.1zm9.9 2.1l-14.4 12.3 5.1 1 14.4-12.2-5.1-1.1zm20.4 19c0.1-1.7 0.2-3.3 0.2-5l-4.8 4.1 4.6 0.9zm-10.5-16.8l-14.3 12 5.2 1 14.2-12-5.1-1.1zm9.9 2.1l-14.1 12 5.2 1 10-8.5q0-2.1 0.1-4.2l-1.2-0.3z"/><path class="o" d="m586.9 540.9c0 0 8.3-3.6 13.6-9.2 5.2-5.7 14.4-8.6 27.1-14.6 12.7-6 14.7-15.1 24-18.3 9.2-3.3 32.4-4.7 40.5 2.5 8.1 7.1 13.2 16.5 24.9 20.9 11.7 4.4 24.7 18.7 24.7 18.7z"/><path class="p" d="m741.7 540.9c0 0-13-14.3-24.7-18.7-11.7-4.4-16.8-13.8-24.9-20.9-4.6-4.1-14.1-5.4-23.1-5.2 2.4 3.4 5.7 9.7 1.9 15.7-5.5 8.7-14.5 15.7-20.2 19.8-2.5 1.8-5 5.5-7 9.3h98.1z"/><path class="o" d="m1162.9 539.8h-37.9c0 0 9.9-8.9 16.6-17.3 6.6-8.4 10-16.4 16.7-20.6 6.7-4.2 17.6-19.1 26.5-23.1 8.8-4 30-0.4 38.6 12.9 8.5 13.2 19.6 22.3 27.2 25.4 7.6 3 31.4 22.7 31.4 22.7z"/><path class="q" d="m1230.4 522.5c-3.3-6.1-22.5-15.8-30.4-26.6-7.8-10.7-4.5-18.5-4.5-18.6-4.3-0.2-8.1 0.3-10.7 1.5-8.8 4-19.8 18.9-26.5 23.1-6.6 4.2-10 12.2-16.7 20.6-6.6 8.4-16.6 17.3-16.6 17.3h110c-0.5-3.5-1.9-12.5-4.6-17.3z"/><path class="r" d="m1196.2 385.8h-3.8v128.3h3.8z"/><path class="s" d="m1196.2 406.9v-21.1h-3.8v20.3z"/><path class="t" d="m1207.8 510.9h-27l-11.5 30h50z"/><path class="u" d="m1205.2 346.7h-21.8l-15.4 15.4v21.9l15.4 15.4h21.8l15.5-15.4v-21.9z"/><path class="v" d="m1202.3 346.7l-18.3 52.7h21.2l15.5-15.4v-21.9l-15.5-15.4z"/><path fill-rule="evenodd" class="d" d="m1217.1 363.6v18.9l-13.3 13.4h-18.9l-13.4-13.4v-18.9l13.4-13.4h18.9zm-1.8 0.7l-12.3-12.3h-17.5l-12.3 12.3v17.5l12.3 12.4h17.5l12.3-12.4z"/><path fill-rule="evenodd" class="d" d="m1185.8 375.4q0 1.2-0.8 1.8-0.9 0.7-2.4 0.7-1.3 0-2.4-0.5v-1.7q0.9 0.4 1.5 0.5 0.6 0.2 1.1 0.2 0.6 0 0.9-0.2 0.3-0.3 0.3-0.7 0-0.3-0.1-0.5-0.2-0.2-0.4-0.3-0.3-0.2-1.1-0.6-0.8-0.4-1.2-0.7-0.4-0.4-0.7-0.8-0.2-0.5-0.2-1.1 0-1.1 0.8-1.8 0.8-0.6 2.1-0.6 0.7 0 1.3 0.1 0.6 0.2 1.3 0.5l-0.6 1.4q-0.7-0.3-1.2-0.4-0.4-0.1-0.8-0.1-0.6 0-0.8 0.2-0.3 0.3-0.3 0.7 0 0.2 0.1 0.4 0.1 0.2 0.4 0.3 0.2 0.2 1.1 0.6 1.2 0.6 1.7 1.2 0.4 0.6 0.4 1.4zm4.9 2.4h-1.9v-7.1h-2.3v-1.5h6.5v1.5h-2.3zm11.4-4.3q0 2.2-1.1 3.3-1 1.1-3 1.1-2 0-3-1.1-1.1-1.1-1.1-3.3 0-2.1 1.1-3.2 1-1.2 3-1.2 2 0 3 1.2 1.1 1.1 1.1 3.2zm-6.3 0q0 1.5 0.6 2.2 0.5 0.7 1.6 0.7 2.2 0 2.2-2.9 0-2.9-2.2-2.9-1.1 0-1.6 0.8-0.6 0.7-0.6 2.1zm14-1.6q0 1.4-0.9 2.1-0.9 0.8-2.4 0.8h-0.8v3h-1.9v-8.5h2.8q1.6 0 2.4 0.6 0.8 0.7 0.8 2zm-4.1 1.4h0.6q0.8 0 1.2-0.3 0.4-0.4 0.4-1 0-0.6-0.3-0.9-0.4-0.4-1.1-0.4h-0.8z"/><path class="w" d="m610.1 428.9h-6.6v113.1h6.6z"/><path class="x" d="m603.5 498.9l6.6 0.5v-6.6c-2.3-0.3-4.7-0.6-6.6-0.9z"/><path class="w" d="m662.6 428.9h-6.6v113.1h6.6z"/><path class="x" d="m656 498.9l6.6 0.5v-6.6c-2.4-0.3-4.8-0.6-6.6-0.9z"/><path class="k" d="m684.1 434.1h-102.1v61.7h102.1z"/><path class="y" d="m629.2 495.8h54.9v-61.7h-33.6z"/><path class="m" d="m587 434.1l-5 5v5h3.7l10-10zm51.5 0l-10 10h8.6l10-10zm-34.3 0l-10 10h8.6l10-10zm17.1 0l-9.9 10h8.6l10-10zm34.3 0l-9.9 10h8.6l9.9-10zm24.4 10h4.1v-4.1zm-7.2-10l-10 10h8.7l9.9-10z"/><path class="m" d="m587 485.8l-5 5v5h3.7l10-10zm51.5 0l-10 10h8.6l10-10zm-34.3 0l-10 10h8.6l10-10zm17.1 0l-9.9 10h8.6l10-10zm34.3 0l-9.9 10h8.6l9.9-10zm24.4 10h4.1v-4.1zm-7.2-10l-10 10h8.7l9.9-10z"/><path class="z" d="m606.8 435.7c3 0 5.3-2.3 5.3-5.3 0-2.9-2.3-5.3-5.3-5.3-2.9 0-5.3 2.4-5.3 5.3 0 3 2.4 5.3 5.3 5.3z"/><path class="A" d="m610 430.4c0 1.8-1.4 3.2-3.2 3.2-1.7 0-3.2-1.4-3.2-3.2 0-1.7 1.5-3.2 3.2-3.2 1.8 0 3.2 1.5 3.2 3.2z"/><path class="z" d="m654 430.4c0 3 2.4 5.3 5.3 5.3 2.9 0 5.3-2.3 5.3-5.3 0-2.9-2.4-5.3-5.3-5.3-2.9 0-5.3 2.4-5.3 5.3z"/><path class="A" d="m656.1 430.4c0 1.8 1.4 3.2 3.2 3.2 1.8 0 3.2-1.4 3.2-3.2 0-1.7-1.4-3.2-3.2-3.2-1.8 0-3.2 1.5-3.2 3.2z"/><path fill-rule="evenodd" class="m" d="m596.9 460.9q-1.6 0-2.4 1.2-0.9 1.1-0.9 3.2 0 4.3 3.3 4.3 1.3 0 3.2-0.7v2.3q-1.6 0.6-3.5 0.6-2.8 0-4.3-1.7-1.5-1.7-1.5-4.8 0-2 0.8-3.5 0.7-1.6 2-2.4 1.4-0.8 3.3-0.8 1.8 0 3.7 0.9l-0.9 2.3q-0.7-0.4-1.4-0.6-0.7-0.3-1.4-0.3zm13.8 10.8l-0.9-3.1h-4.7l-0.9 3.1h-2.9l4.5-12.9h3.3l4.6 12.9zm-1.6-5.4q-1.3-4.1-1.5-4.7-0.1-0.5-0.2-0.8-0.3 1.1-1.7 5.5zm16.6-7.5v8.3q0 1.5-0.6 2.5-0.6 1.1-1.8 1.7-1.2 0.5-2.9 0.5-2.5 0-3.8-1.2-1.4-1.3-1.4-3.5v-8.3h2.7v7.9q0 1.5 0.6 2.2 0.6 0.7 2 0.7 1.3 0 1.9-0.7 0.6-0.7 0.6-2.2v-7.9zm8.1 12.9h-2.7v-10.6h-3.5v-2.3h9.7v2.3h-3.5zm5.5 0v-12.9h2.7v12.9zm17.6-6.5q0 3.2-1.5 4.9-1.6 1.8-4.6 1.8-2.9 0-4.5-1.8-1.6-1.7-1.6-4.9 0-3.2 1.6-4.9 1.6-1.7 4.5-1.7 3 0 4.6 1.7 1.5 1.7 1.5 4.9zm-9.3 0q0 2.2 0.8 3.3 0.8 1.1 2.4 1.1 3.3 0 3.3-4.4 0-4.3-3.3-4.3-1.6 0-2.4 1.1-0.8 1.1-0.8 3.2zm23.4 6.5h-3.5l-5.5-9.7h-0.1q0.1 2.5 0.1 3.6v6.1h-2.4v-12.9h3.4l5.6 9.7h0.1q-0.1-2.5-0.1-3.6v-6.1h2.4z"/><path class="B" d="m690.5 371.2c0.2 1.4-0.3 2.7-1.1 2.9-0.9 0.2-1.9-0.9-2.1-2.3-0.3-1.5 0.2-2.8 1.1-3 0.9-0.1 1.8 0.9 2.1 2.4z"/><path class="B" d="m708.2 371.2c-0.2 1.4 0.3 2.7 1.1 2.9 0.9 0.2 1.9-0.9 2.1-2.3 0.3-1.5-0.2-2.8-1.1-3-0.9-0.1-1.8 0.9-2.1 2.4z"/><path class="B" d="m668.6 428.2c0 0.1-5.1 1.6-7.3 3.1-2.1 1.4-5.2 6.1-4.6 7 0.7 0.9 6.8-0.5 8.9-1.7 2.1-1.2 5.1-3.7 5.2-4.1 0.2-0.3-2.2-4.3-2.2-4.3z"/><path class="C" d="m634.8 395.2l-10.1 2.9c0.5 0.4 1 1.1 1 2.3l9.8-2.7-0.7-2.5z"/><path class="B" d="m626.1 398.1c0 0-4.1-4-7-1.7-3 2.3-3.3 5.4-1.7 7.1 1.5 1.7 7 2.1 8.8-0.8 0 0 1.8-3.1-0.1-4.6z"/><path class="D" d="m679.4 455c0 0-1.4 37 0 54.2 1.5 17.2 2.8 28.9 2.8 28.9l10.4 0.9c0 0 8.5-51.6 10.1-62.6q0.2-1.5 0.3-2.9c2 21.9 9.9 65.5 9.9 65.5h9.3c0 0 1.4-17.2 2.7-28.6 1.2-11.4 1.2-55.4 1.2-55.4h-46.7z"/><path class="E" d="m722.6 398.2c0.4-1.4-0.7-4.7-1.4-5-2.4-1.1-8.1-1.7-10.7-2.6-4.5-1.5-8.4-2-10.4-1.9-3.3 0.2-6.4 0-12 1.5-32.2 3-62.3 7.7-62.3 7.7l0.1 5.4c26.9 3.2 49.2 2.9 54.7 2.7-0.9 13.7-1.9 34.7-1.2 49h46.7c0 0-1.4-50.8-3.6-56.8z"/><path class="F" d="m679.4 431.6c14.5-3.4 30.4-8.8 44.8-19.3-0.4-6-0.8-10.9-1.4-13.2q-0.1 0-0.1 0l-43.1 26.9q-0.1 2.8-0.2 5.6z"/><path class="G" d="m669.2 434.1c0 0-2-5.3-0.6-7 1.4-1.8 42.3-33.2 48.4-33.9 6.1-0.7 9.8 1.5 7.2 12.9-2.3 10.6-55 28-55 28z"/><path class="C" d="m620 399.5l-36.9 10.1 0.7 2.4 37.2-10.1c-0.1-0.4 0.1-0.8 0-1.1-0.2-0.5-0.9-0.9-1-1.2z"/><path class="H" d="m695.2 522.9h-14.5c0 0 1.4 14.3 1.5 15.2 0 0-4.9-1.4-7.8 0.9-2.9 2.4-1 5.5 4.8 6 5.9 0.5 12.6-0.2 13.4-1.3 0.8-1 0-4.7 0-4.7z"/><path class="H" d="m722.1 539l1.5-16.1h-13.6c0.1 6.3 2.7 20.5 2.7 21.6 0 0 1.9 0.1 1.9 0.1 1 1 11.2 1.3 12.2 0.6 1.1-0.7-0.3-6.2-4.7-6.2z"/><path class="B" d="m705.4 389.3l-0.3-5.6h-11l-0.5 5.4c-1.2 0.2-2.6 0.4-4.1 0.8 0 0 4.6 2.9 10.5 3.3 3.3 0.2 7-1.2 10.5-2.6-1.8-0.5-3.5-1-5.1-1.3z"/><path class="I" d="m705.1 383.7h-11l-0.2 1.9c1.6 0.9 5.4 2.8 8.1 3.2 1.2 0.2 2.4 0.2 3.4 0z"/><path class="B" d="m689.4 367.8c0 0.2-1 7.7 1 11.9 2 4.1 6.7 7.1 9.3 8 0 0 4.8-0.5 8.4-7.3 3.6-6.8 1.6-14.2 1.2-16.2-0.5-2.1-7.5-7-13-5.4-5.5 1.6-6.1 6.2-6.9 9z"/><path class="J" d="m709.3 364.2c-0.5-2.1-7.5-7-13-5.4-5.4 1.6-6.1 6.2-6.9 9 0 0.1-0.3 2.5-0.3 5.3 0.1-0.1 1.5-2.9 1.6-4.2 0-1.3 1.2-3.2 1.8-4.1 0.6-0.9 4.7-3.1 6.7-3.2 2-0.1 7.2 1.3 8 2.2 0.8 1 1.6 6.3 1.7 7.2 0.1 0.9 1.3 2.1 1.3 2.1 0 0-0.2-1.3 0-2.9-0.1-2.8-0.7-5.1-0.9-6.1z"/><path class="K" d="m688.1 367c0 0 2.1-10.9 7.1-15.1 0 0 5.3-0.7 9.7 0.5 0 0 6.2 6.7 6.2 14.1z"/><path class="L" d="m713.5 366.5h-27.9v1h27.9z"/><path class="k" d="m610.9 402l-27.8 7.6 0.7 2.4 27.8-7.5c0-1.1-0.3-1.9-0.7-2.5z"/><path class="M" d="m966 543.9l-36.8-5.7-36.8-5.7 13.4-23.3 13.4-23.3 23.4 29z"/><path class="N" d="m935.6 506.1l-16.4-20.2-13.4 23.3-13.4 23.3 36.8 5.7 14.7 2.3c-2.1-8.8-5.7-23.4-8.4-34.4z"/><path class="O" d="m885.8 543.9l40-69.5-2.2-1.3-40.1 69.5z"/><path class="d" d="m915.5 536.1l18.4-32-4.9-6.1-21.2 36.9 7.7 1.2zm13.7 2.1l5 0.8 11.6-20.1-3.2-4-1.7-2.2-14.4 25.1z"/><path class="M" d="m838.7 473.1l13.4 34.8 13.4 34.7h-26.8-26.9l13.5-34.7z"/><path class="O" d="m878.8 542.6h-80.2v2.6h80.2z"/><path class="d" d="m857.1 520.7h-36.8l-2.8 7.4h42.4l-2.8-7.4zm-5-12.8l-1.8-4.8h-23.2l-1.8 4.8-1 2.5h28.8l-1-2.5z"/><path class="P" d="m865.5 542.6l-13.4-34.7-13.4-34.8 6.7 69.5z"/><path class="w" d="m1026.9 549c-0.5 0-1-0.4-1-1-0.1-0.3-0.8-8.7 2-14 0.3-0.5 0.9-0.7 1.5-0.4 0.5 0.2 0.7 0.9 0.4 1.4-2.5 4.8-1.8 12.7-1.8 12.8 0.1 0.6-0.4 1.1-1 1.2q0 0-0.1 0z"/><path class="Q" d="m1137.4 465.2c0 0 11.8 48.4 44.4 60.3l7.7-5.8c0 0-22.2-19.2-26.1-60.8z"/><path class="R" d="m1137.7 460.5c0 0-27 8-32.2 65.7l11 4.3c0 0 8.5-31.4 42.1-55.4 4.9-3.5 9.2-12.7 3.8-24l-24.7 9.4z"/><path class="H" d="m1104.5 521.1l16.1 0.2c0 0-4.6 17.6-4.8 22.8 0 0-20.4 2.7-22.8-0.7-2.4-3.3 2.4-7.7 6.2-7.7 3.9 0 5.6 0.5 5.6 0.5l-0.3-15.1z"/><path class="H" d="m1177.3 524.6l6.5-14.7c0 0 14.4 11 19.1 13.3 0 0-5.6 19.8-9.6 20.7-4 0.9-6.1-5.2-4.6-8.7 1.5-3.6 2.6-4.9 2.6-4.9z"/><path class="S" d="m1076.4 470.5l-15.1-3c0 0-1.1-0.2-1.3 1.1-0.2 1.3 0.5 1.5 0.5 1.5l15.2 3c-0.1-0.2-0.2-0.5-0.3-0.8-0.1-0.9 0.5-1.4 1-1.8z"/><path class="w" d="m1053.3 491.9q-0.4 0-0.7-0.3c-0.5-0.4-0.5-1.1-0.1-1.5l18.1-19.9c0.4-0.4 1.1-0.4 1.6 0 0.4 0.4 0.4 1.1 0 1.5l-18.1 19.8c-0.2 0.3-0.5 0.4-0.8 0.4z"/><path class="B" d="m1074.7 464.8c0 0-5.5 2.2-5.8 5.6-0.4 3.4 2 5.2 5.8 4.7 3.7-0.5 5.8-4.6 5.3-5.9l2-1.8c0 0-4.2-3.8-7.3-2.6z"/><path class="T" d="m1106.8 416.7c0 0-12.2 32.1-33.6 48.7 0 0 2.8-0.5 4.8-0.1 2.6 0.6 3.8 2.3 3.8 2.3 0 0 24.1-14.7 36.4-35.9 0 0 4.2-17.3-11.4-15z"/><path class="U" d="m1134.6 461.9c0 0-26.5-23.8-27.8-45.2 0 0 14.3-8.5 23.2-9 9-0.5 13.8 5.9 21.5 16.9 7.6 11 10.9 26.5 10.9 26.5z"/><path class="V" d="m1127.5 454.8c3.8-5 10.8-14.9 15.1-24.9 5.3-12.4-2.3-18.8-3.4-19.6q-0.1-0.1-0.2-0.1c0 0.1-1 10.4-3.8 17.5-1.9 4.8-8.6 14.9-12.8 21.1 1.8 2.2 3.5 4.3 5.1 6z"/><path class="S" d="m1096 474.5l-19.6-3.9c-0.5 0.3-1.1 0.8-1 1.7q0.1 0.5 0.3 0.8l19.9 4c-0.3-0.7-0.7-1.8 0.4-2.6z"/><path class="B" d="m1094.4 469.3c0 0-5.4 2.2-5.8 5.6-0.3 3.4 2.1 5.3 5.8 4.7 3.8-0.5 5.8-4.6 5.3-5.9l2-1.8c0 0-4.2-3.8-7.3-2.6z"/><path class="W" d="m1093.8 469.5c0 0 17.4-17.6 23.7-34.2 6.4-16.6 6.4-28.4 14.6-27.6 8.1 0.8 12.9 6.1 9.3 17.6-3.6 11.6-26.7 38.1-39.7 47 0 0-1.7-1.7-3.4-2.3-2-0.6-4.5-0.5-4.5-0.5z"/><path class="B" d="m1124.9 408.7l0.1-0.1-5.1-4.1-10 3.9 2.5 5.3c-0.9 0.5-1.8 0.9-2.5 1.3 0.7 1.6 2.5 2.8 6.6 1.4 5.4-1.8 8.2-5.6 9.5-8q-0.5 0.1-1 0.3z"/><path class="I" d="m1110.3 408.2q-0.1 0.4-0.1 0.8l1.8 3.9c2.2-0.4 7.3-1.8 9.6-7.1l-1.6-1.3-9.7 3.7z"/><path class="B" d="m1098.3 393.1c0 0 0.8 8.8 4.4 12.4 3.6 3.6 5.6 4.3 9 4.5 3.4 0.3 7.7-2.3 8.9-5.2 1.1-2.9 2.6-10.5 0-15-2.6-4.4-12.3-6.3-16.4-4.4-4 1.9-6.4 4.3-5.9 7.7z"/><path class="J" d="m1120.6 389.8c-2.6-4.4-12.3-6.3-16.4-4.4-3.3 1.5-5.4 3.4-5.8 5.9 1.9-0.6 5.2-1.3 7.8-0.7 4.1 0.9 5.5 4.2 6.5 6.4 0 0 0.8-2.5 0.6-3.3-0.1-0.8 0.5-1.8 2.6-1.1 2 0.8 0.4 4.4-0.6 5.4 0 0 4.3 2 6.1 4.2 0.8-3.6 1.2-9-0.8-12.4z"/><path class="K" d="m1095.8 392.9c0 0-0.3-10.1 4.6-14.4 0 0 6.8-2 12-1.1 0 0 7.3 2.9 9.9 12.2l-26.4 3.3z"/><path class="S" d="m1109.4 477.1l-13.4-2.7c-1.1 0.8-0.7 2-0.3 2.7l13.2 2.6c0 0 1.1 0 1.1-1.3 0-0.8-0.2-1.2-0.6-1.3z"/><path class="w" d="m1079 498q-0.4 0-0.8-0.3c-0.4-0.4-0.4-1.1 0-1.5l18.1-19.8c0.4-0.5 1.1-0.5 1.5-0.1 0.4 0.4 0.5 1.1 0.1 1.5l-18.1 19.9c-0.2 0.2-0.5 0.3-0.8 0.3z"/><path class="X" d="m1034 549.5c-0.4 3.3-2.9 5.8-5.8 5.5-2.8-0.3-4.8-3.2-4.4-6.5 0.3-3.3 2.9-5.8 5.7-5.5 2.8 0.3 4.8 3.2 4.5 6.5z"/><path class="w" d="m1028.7 550.6q-0.4 0-0.7-0.3c-0.4-0.4-0.4-1.1 0-1.5 5-4.9 8.8-16.7 8.8-16.8 0.2-0.6 0.8-0.9 1.4-0.7 0.5 0.2 0.8 0.8 0.7 1.4-0.2 0.5-4 12.4-9.4 17.6q-0.3 0.3-0.8 0.3z"/><path class="Y" d="m998.7 520.3c0 0 7.3 10.8 23.4 15.5 16.1 4.7 43.2-6.9 53.9-16.1 0 0 8.5-11.6 11.4-22.8l-55.6 10.4z"/><path class="Z" d="m1044.6 488.1l42.8 8.8c0 0-35.8 19.1-66.2 24.1-30.4 5-25.8-3.8-13.1-12.5 12.8-8.7 36.5-20.4 36.5-20.4z"/><path class="a0" d="m1044.9 490.7l35.5 7.1c0 0-31.2 15.9-59.8 20.8-28.7 4.9-17.1-3.7-12.6-7 4.6-3.3 32.9-19.5 36.9-20.8z"/><path class="L" d="m1124.9 389.3l-32.8 3.3 0.1 1.3 32.8-3.3z"/><path class="o" d="m1068.2 490.7c-1.9-2.6-10.3-5-17.3-9.1-7.1-4-5.9-4-12.3-4.5-6.4-0.5-9.4 1-12.3 3.8-2.8 2.7-8.4 13.9-11.4 18.7-2.6 4.1-5.2 8.1-6.7 11.9q-0.4 0.8-0.7 1.7c-0.9 2.7-2.2 5.3-3 6.7 2.7 0.4 7.6 0.2 16.1-1.3 28.6-5 59.8-20.8 59.8-20.8-1.1-3.5-10.3-4.5-12.2-7.1z"/><path class="a1" d="m1068.2 490.7c-1.9-2.6-10.3-5-17.3-9.1-7.1-4-5.9-4-12.3-4.5-3.9-0.3-6.5 0.2-8.6 1.2 0.2 0 19.9 3.6 16.7 11.3-3.3 7.8-5.5 13.6 0.9 15.8 2 0.7 4.6 2 7.4 3.4 14.7-5.5 25.4-11 25.4-11-1.1-3.5-10.3-4.5-12.2-7.1z"/></g></g></svg>